<svg
  width="32"
  height="32"
  viewBox="0 0 32 32"
  fill="none"
  xmlns="http://www.w3.org/2000/svg"
>
  <title>RD Station</title>
  <g transform="translate(2.5 0)">
    <path
      d="M26.1903 6.6976C26.0206 6.0768 25.6149 5.5168 25.0417 5.08693C22.0411 2.83413 18.4714 1.14773 14.588 0.145067C14.2112 0.048 13.8216 0 13.4309 0C13.0402 0 12.6506 0.048 12.2737 0.145067C8.38922 1.14773 4.81961 2.83413 1.81896 5.08693C1.24573 5.5168 0.839029 6.07787 0.670369 6.6976C0.223101 8.33387 0 10.0011 0 11.6672V20.3328C0 22 0.223101 23.6672 0.670369 25.3024C0.839029 25.9232 1.24573 26.4832 1.81896 26.9141C4.81961 29.1659 8.38922 30.8533 12.2737 31.8549C12.6506 31.952 13.0402 32 13.4309 32C13.8216 32 14.2123 31.952 14.588 31.8549C18.4714 30.8533 22.0421 29.1659 25.0428 26.9141C25.616 26.4832 26.0227 25.9232 26.1914 25.3024C26.6386 23.6672 26.8617 22 26.8617 20.3328V11.6672C26.8617 10.0011 26.6386 8.33387 26.1914 6.6976M25.8188 16.5685C25.6672 17.1221 25.3096 17.6235 24.7844 18.0181C23.3113 19.1232 21.6867 20.1003 19.9552 20.9173C18.2249 21.7365 16.3803 22.4 14.4738 22.8907C14.1343 22.9771 13.7853 23.0219 13.4309 23.0219C13.0765 23.0219 12.7263 22.9781 12.388 22.8907C10.4815 22.4 8.63687 21.7355 6.90651 20.9173C5.17508 20.0992 3.55146 19.1232 2.07729 18.0181C1.55103 17.6245 1.19343 17.1221 1.04292 16.5685C0.942573 16.1963 0.942573 15.8048 1.04292 15.4325C1.19343 14.8789 1.55103 14.3776 2.07729 13.9829C3.5504 12.8779 5.17508 11.9008 6.90651 11.0837C8.63687 10.2645 10.4815 9.60107 12.388 9.10933C12.7263 9.02293 13.0765 8.9792 13.4309 8.9792C13.7853 8.9792 14.1354 9.02293 14.4738 9.10933C16.3803 9.60107 18.2249 10.2656 19.9552 11.0837C21.6867 11.9019 23.3113 12.8779 24.7844 13.9829C25.3096 14.3765 25.6672 14.8779 25.8188 15.4325C25.9202 15.8048 25.9202 16.1963 25.8188 16.5685Z"
      fill="#002233"
    />
  </g>
</svg>
