<svg width="24" height="25" viewBox="0 0 24 25" fill="none" xmlns="http://www.w3.org/2000/svg">
  <path
    d="M21 12.5C21 17.4706 16.9706 21.5 12 21.5C7.02942 21.5 3 17.4706 3 12.5C3 7.52942 7.02942 3.5 12 3.5C16.9706 3.5 21 7.52942 21 12.5ZM10.959 17.2654L17.6364 10.588C17.8631 10.3613 17.8631 9.99361 17.6364 9.76687L16.8153 8.94573C16.5885 8.71895 16.2209 8.71895 15.9941 8.94573L10.5484 14.3914L8.00592 11.8489C7.77918 11.6222 7.41152 11.6222 7.18475 11.8489L6.3636 12.6701C6.13686 12.8968 6.13686 13.2645 6.3636 13.4912L10.1378 17.2654C10.3646 17.4922 10.7322 17.4922 10.959 17.2654Z"
    fill="#00D4FF"
  />
</svg>
